<svg width="478" height="186" viewBox="0 0 478 186" fill="none" xmlns="http://www.w3.org/2000/svg">
    <path d="M50.5439 132.393C36.9264 108.807 45.4493 75.2283 70.6027 39.877C95.7279 4.56518 137.336 -32.3409 189.48 -62.4463C241.624 -92.5517 294.389 -110.132 337.533 -114.235C380.725 -118.343 414.066 -108.935 427.683 -85.3487C441.301 -61.7626 432.778 -28.1843 407.624 7.16705C382.499 42.4788 340.891 79.3849 288.747 109.49C236.603 139.596 183.838 157.176 140.694 161.279C97.5025 165.387 64.1613 155.979 50.5439 132.393Z" stroke="#A546D1"/>
    <path d="M70.8101 96.667C65.8155 88.0161 65.3799 77.2217 68.9567 65.0501C72.534 52.8769 80.1137 39.3714 91.0755 25.3636C112.997 -2.64986 148.38 -32.5893 192.033 -57.7927C235.687 -82.9961 279.306 -98.6683 314.527 -103.646C332.139 -106.136 347.625 -105.947 359.956 -102.959C372.286 -99.9704 381.416 -94.196 386.411 -85.545C391.405 -76.8941 391.841 -66.0997 388.264 -53.9281C384.687 -41.7549 377.107 -28.2494 366.145 -14.2416C344.223 13.7718 308.841 43.7113 265.188 68.9147C221.534 94.1181 177.915 109.79 142.693 114.768C125.081 117.258 109.595 117.069 97.2645 114.081C84.9351 111.092 75.8047 105.318 70.8101 96.667Z" stroke="#A546D1"/>
    <path d="M62.4636 112.776C56.5721 102.571 55.6838 90.0762 59.189 76.1704C62.6949 62.2614 70.59 46.9738 82.2136 31.2398C105.46 -0.226845 143.56 -33.3997 191.012 -60.7963C238.464 -88.1929 286.243 -104.602 325.117 -109C344.555 -111.2 361.742 -110.393 375.54 -106.475C389.336 -102.558 399.712 -95.541 405.604 -85.3366C411.495 -75.1322 412.384 -62.6372 408.878 -48.7314C405.373 -34.8224 397.477 -19.5348 385.854 -3.80083C362.608 27.6658 324.508 60.8386 277.055 88.2352C229.603 115.632 181.825 132.041 142.951 136.439C123.513 138.639 106.326 137.832 92.5273 133.914C78.7319 129.997 68.3551 122.98 62.4636 112.776Z" stroke="#A546D1"/>
</svg>
