<svg width="524" height="119" viewBox="0 0 524 119" fill="none" xmlns="http://www.w3.org/2000/svg">
    <g opacity="0.3">
        <path d="M461.124 2.83577L462.215 6.68852L462.291 6.95734L462.56 7.03343L466.412 8.12402L462.56 9.2146L462.291 9.2907L462.215 9.55952L461.124 13.4123L460.033 9.55952L459.957 9.2907L459.689 9.2146L455.836 8.12402L459.689 7.03343L459.957 6.95734L460.033 6.68852L461.124 2.83577Z" stroke="#A546D1"/>
        <path d="M108.124 45.8358L109.215 49.6885L109.291 49.9573L109.56 50.0334L113.412 51.124L109.56 52.2146L109.291 52.2907L109.215 52.5595L108.124 56.4123L107.033 52.5595L106.957 52.2907L106.689 52.2146L102.836 51.124L106.689 50.0334L106.957 49.9573L107.033 49.6885L108.124 45.8358Z" stroke="#A546D1"/>
        <path d="M6.54345 105.567L7.47687 108.864L7.55296 109.133L7.82178 109.209L11.1193 110.143L7.82178 111.076L7.55296 111.152L7.47687 111.421L6.54345 114.718L5.61004 111.421L5.53394 111.152L5.26512 111.076L1.96761 110.143L5.26512 109.209L5.53394 109.133L5.61004 108.864L6.54345 105.567Z" stroke="#A546D1"/>
        <path d="M17.8364 1.83577L19.0842 6.24375L19.1603 6.51257L19.4291 6.58867L23.8371 7.83642L19.4291 9.08417L19.1603 9.16027L19.0842 9.42909L17.8364 13.8371L16.5887 9.42909L16.5126 9.16027L16.2438 9.08417L11.8358 7.83642L16.2438 6.58867L16.5126 6.51257L16.5887 6.24375L17.8364 1.83577Z" stroke="#A546D1"/>
        <path d="M511.543 96.8358L513.608 104.133L513.684 104.401L513.953 104.477L521.25 106.543L513.953 108.608L513.684 108.684L513.608 108.953L511.543 116.25L509.477 108.953L509.401 108.684L509.133 108.608L501.836 106.543L509.133 104.477L509.401 104.401L509.477 104.133L511.543 96.8358Z" stroke="#A546D1"/>
    </g>
</svg>
