<svg width="91" height="67" viewBox="0 0 91 67" fill="none" xmlns="http://www.w3.org/2000/svg">
    <path d="M1 62.3118C1.92324 62.6841 10.417 65.1045 10.971 64.1736C11.5249 63.2427 10.7863 62.8464 10.417 63.615C10.0477 64.3837 8.57054 65.1045 13.9253 65.663C19.2801 66.2216 22.2344 64.5459 26.666 65.1045C31.0975 65.663 33.1286 65.4769 31.8361 64.1736C30.5436 62.8703 25.0042 60.0776 24.4502 58.9605C23.8963 57.8434 13.1867 62.3118 13.3714 62.6841C13.556 63.0565 18.1722 62.1256 22.7884 58.2157C27.4046 54.3059 39.5913 38.6666 40.1452 36.8048C40.6992 34.943 41.9917 27.6819 43.8382 24.8891C45.6846 22.0964 47.5311 19.8622 46.4232 17.628C45.3154 15.3938 43.2842 12.2287 45.3154 10.1807C47.3465 8.13272 48.2697 6.64327 48.4544 7.57418C48.639 8.50509 46.9772 9.62218 48.0851 11.8564C49.1929 14.0906 46.4232 12.4149 48.0851 10.1807C49.7469 7.94654 50.4855 8.31891 49.9315 9.24982C49.3776 10.1807 49.1929 15.0215 50.4855 15.0215C51.778 15.0215 50.4855 9.62218 51.4087 11.2978C52.332 12.9735 53.8091 14.8353 52.332 16.3247C50.8548 17.8142 47.7158 33.2673 45.8693 33.4535C44.0228 33.6397 45.8693 30.847 48.639 28.9851C51.4087 27.1233 56.0249 21.3517 58.2407 19.3037C60.0133 17.6653 64.2725 18.2486 66.1805 18.7451C64.9495 13.0976 61.0842 1.65358 55.471 1.0578C48.4544 0.31307 41.9917 6.82945 44.7614 16.8833C45.0692 18.0624 45.3892 20.7186 44.2075 21.9102C42.7303 23.3997 32.5747 33.6397 34.7905 37.3633C37.0062 41.087 41.0685 32.3364 39.9606 32.5226C38.8527 32.7088 30.9129 47.0448 29.251 49.279C27.9216 51.0663 25.7427 53.7474 24.8195 54.8645C25.0041 57.2228 26.7768 61.9394 32.39 61.9394C33.0055 60.3879 35.6398 55.9071 41.2531 50.3961C48.2697 43.5073 48.2697 38.4804 47.3465 39.2252C46.4232 39.9699 46.9772 42.9488 48.639 46.1139C50.3008 49.279 57.8714 65.1045 65.2573 65.663C71.166 66.1099 75.5975 62.4979 77.0747 60.6361C74.6743 57.2228 69.2087 49.5397 66.5498 46.1139C63.8909 42.6881 58.6715 34.8809 56.3942 31.4055C51.8396 35.3153 42.1394 42.1668 39.7759 38.2942C39.5913 39.5975 40.2929 41.7945 44.5768 40.1561C49.9315 38.1081 60.2718 28.799 61.3797 27.4957C62.4876 26.1924 62.4876 29.1713 62.3029 29.5437C62.1183 29.916 60.8257 29.5437 60.6411 29.5437C60.4564 29.5437 58.4253 34.7568 62.8568 39.2252C67.2884 43.6935 68.5809 49.4652 66.5498 48.3481C64.5187 47.231 61.5643 38.6666 62.3029 34.3844C62.8938 30.9587 63.2877 29.854 63.4108 29.7299C66.4882 30.1022 73.1232 30.2512 75.0436 27.868C72.6432 25.0132 67.7315 19.3409 67.2884 19.4898C66.7344 19.676 73.751 26.0062 73.1971 31.2193L75.5975 29.1713C79.0443 37.9219 83.1311 57.0614 71.9046 63.615C72.9509 65.4148 78.0349 67.9344 90 63.615" stroke="#6D00B0"/>
</svg>
