<svg width="102" height="62" viewBox="0 0 102 62" fill="none" xmlns="http://www.w3.org/2000/svg">
    <path d="M1 29.7469C4.90782 30.9765 13.5651 33.5155 16.9319 33.8345C21.1403 34.2333 23.4449 32.9373 26.1503 34.6321C28.8557 36.327 26.2505 39.6171 25.1483 40.9132C24.2665 41.9501 24.7809 44.3362 25.1483 45.3997C25.4489 44.5356 25.5691 42.4286 23.6453 40.9132C21.2405 39.0189 16.5311 36.4267 20.8397 32.8376C25.1483 29.2484 30.3587 33.4358 30.3587 36.1276C30.3587 38.2811 29.7575 40.3482 29.4569 41.1126C32.8303 38.8527 40.0581 34.5324 41.982 35.33C44.3868 36.327 45.7896 38.2213 44.3868 39.2183C42.984 40.2153 39.0762 43.306 38.0741 40.9132C37.0721 38.5204 41.1804 36.6261 41.982 36.6261C42.7836 36.6261 45.3888 38.5204 44.6874 39.8165C43.986 41.1126 37.4729 45.4994 35.5691 47.4933C33.6653 49.4873 33.4649 51.6807 30.3587 51.6807C27.2525 51.6807 23.2445 47.593 27.1523 42.5084C27.5531 42.0431 28.3347 41.2522 28.2545 41.8105C28.1543 42.5084 24.4469 47.3936 27.6533 49.1882C30.8597 50.9828 31.8617 50.3846 31.8617 53.0765C31.8617 55.7684 33.9659 57.1642 37.3727 55.9678C40.019 55.0385 47.6228 48.3944 50.9798 45.1006M54.2064 31.7409C59.9178 31.7409 71.6413 46.297 71.3407 46.8952C71.0401 47.4933 57.012 34.2333 59.9178 33.7348C62.8236 33.2364 62.2224 31.1427 63.7254 31.7409C65.2285 32.3391 67.5331 34.8315 65.6293 35.9282C63.7254 37.0249 60.3186 34.0339 59.9178 32.8376C59.517 31.6412 61.6212 30.5445 63.9258 30.8436C66.2305 31.1427 77.2525 40.1156 78.2545 41.8105C79.2565 43.5054 78.1543 47.4933 75.9499 48.59C73.7455 49.6867 74.6473 50.0855 72.2425 53.1762C69.8377 56.2669 69.7375 53.4753 67.8337 55.3696C65.9299 57.2639 65.3287 55.8681 62.6232 57.0645C59.9178 58.2609 57.513 58.2609 56.01 57.4633C54.507 56.6657 54.507 57.0645 53.2044 58.2609C51.9018 59.4573 50.2986 59.9558 48.6954 58.56C47.4319 57.4599 49.3425 55.3071 50.6994 54.1514M54.2064 31.7409C48.495 31.7409 50.3988 36.9252 53.2044 37.8225C56.01 38.7198 59.6172 37.6231 57.8136 35.33C56.3707 33.4956 55.4088 33.5022 55.1082 33.7348C54.2732 34.7651 52.4028 36.9252 51.6012 37.324C50.5992 37.8225 57.012 40.9132 57.8136 42.4087C58.6152 43.9042 59.016 45.3 57.3126 45.3997C55.6092 45.4994 54.3066 43.9042 54.006 43.6051C53.7054 43.306 55.509 42.5084 56.4108 40.4147C57.3126 38.321 61.6212 45.5991 63.2244 46.8952C64.8277 48.1912 68.0341 51.581 65.3287 53.4753C62.6232 55.3696 60.3186 51.8801 60.1182 52.1792C59.9178 52.4783 60.3186 56.6657 60.1182 57.0645C59.9178 57.4633 61.9218 57.7624 60.8196 54.9708C59.7174 52.1792 56.7625 47.593 55.7094 48.2909C54.6563 48.9888 54.2905 49.7864 55.509 49.1882C56.7276 48.59 61.02 47.2939 60.8196 46.4964C60.6192 45.6988 59.1162 44.5024 59.517 45.6988C59.9178 46.8952 62.523 49.0885 63.9258 49.9858C65.3287 50.8831 69.0361 52.8771 70.6393 51.2819C72.2425 49.6867 71.1403 47.2939 71.9419 47.0946C72.7435 46.8952 79.2565 44.4027 75.7495 37.324C72.2425 30.2454 76.5511 31.3421 78.2545 30.5445C79.9579 29.7469 84.0661 32.04 83.5651 34.4327C83.0641 36.8255 80.9599 39.5174 80.5591 41.1126C80.1583 42.7078 78.2545 40.1156 78.2545 37.7228C78.2545 35.33 94.2866 28.2514 101 25.9583M54.2064 31.7409C52.1356 29.6472 47.9339 25.6991 47.6934 26.6562C47.3928 27.8526 47.7936 28.6502 48.3948 27.9523C48.996 27.2544 53.8056 16.4869 49.3968 13.5956C45.8697 11.2826 42.984 14.6258 41.982 16.5866C38.809 15.5231 32.8637 14.9316 34.4669 21.073C36.0701 27.2145 43.9526 29.2151 47.6934 29.4478C48.328 27.5535 48.6954 23.1667 45.0882 20.7739C40.5792 17.783 38.5751 15.4899 38.0741 10.6046C37.5731 5.71936 45.2886 -3.35328 52.6032 3.42627C59.9178 10.2058 53.2044 12.2995 53.2044 9.80703C53.2044 7.31455 54.8076 1.23289 61.9218 1.43229C69.0361 1.63169 73.3447 8.81003 68.6353 16.8857C64.8677 23.3462 57.4462 29.481 54.2064 31.7409ZM43.8545 49.1882C41.6807 51.0113 39.7109 52.9651 38.6754 54.2729C36.0701 57.563 39.7776 59.6567 42.984 59.7564C45.5491 59.8361 45.7228 59.2579 45.489 58.9588C38.6754 58.2609 41.1804 56.2669 37.8737 55.3696C34.5671 54.4723 32.5631 52.2789 33.0641 49.1882C33.5651 46.0976 46.7916 38.2213 48.996 37.8225C51.2004 37.4237 53.505 40.5144 53.2044 41.8105C52.9038 43.1066 48.996 46.297 46.5912 45.1006C44.1864 43.9042 47.994 38.0219 48.996 39.4177C49.998 40.8135 52.8036 42.5084 52.6032 43.306C52.5585 43.484 51.9445 44.1539 50.9798 45.1006M43.8545 49.1882C47.1492 46.425 50.9128 43.9618 52.6032 44.5024C55.4088 45.3997 55.509 49.2879 53.2044 51.2819C50.8998 53.2759 46.5912 56.7654 46.5912 58.56C46.5912 60.3545 49.3968 61.7503 52.1022 60.554C54.8076 59.3576 56.01 56.0675 54.507 54.572C53.004 53.0765 52.6032 52.8771 51.6012 53.4753C51.3889 53.602 51.0642 53.8407 50.6994 54.1514M43.8545 49.1882C43.1635 47.294 41.6814 43.6649 41.2806 44.303C40.7796 45.1006 42.0957 48.3906 43.8545 49.1882ZM50.9798 45.1006C51.6545 45.5658 53.1443 46.5761 53.7054 46.8952C54.4068 47.294 52.9635 50.9828 50.9798 50.4843C48.996 49.9858 46.8918 49.6867 48.6954 48.0915M50.6994 54.1514C50.4322 54.7568 50.018 56.1871 50.499 57.0645C51.1002 58.1612 53.4048 57.563 53.7054 56.566C54.006 55.569 54.2267 56.4663 52.6032 56.1672C50.9798 55.8681 49.417 54.6717 50.1984 53.1762C50.9798 51.6807 53.4048 51.0825 54.8076 52.4783C56.2104 53.8741 57.8136 54.8711 58.1142 53.7744C58.4148 52.6777 58.3146 49.6867 57.8136 50.4843C57.3126 51.2819 57.8136 52.4783 56.01 52.6777C54.5671 52.8372 55.2084 51.4813 55.7094 50.7834" stroke="#6D00B0"/>
</svg>
