<svg width="78" height="83" viewBox="0 0 78 83" fill="none" xmlns="http://www.w3.org/2000/svg">
    <path d="M36.305 35.6918C33.9681 34.6573 29.7391 31.9677 31.5173 29.4849C33.7402 26.3815 34.5952 26.8987 33.0562 29.1401C31.5173 31.3815 29.1235 31.3815 27.9266 31.0367C26.7297 30.6918 20.0612 27.5884 20.7452 22.416C21.4291 17.2436 18.0094 14.3126 16.2995 15.347C14.5896 16.3815 17.6674 19.8298 18.1804 21.2091C18.6933 22.5884 21.4291 23.1056 20.9162 16.2091L21.9421 19.1401C21.9991 17.9907 22.6602 15.3815 24.8489 14.1401C27.5847 12.5884 23.139 10.5194 28.0976 10.347C33.0562 10.1746 37.16 11.8988 33.5692 6.55394C29.9785 1.20912 25.3618 0.347054 21.9421 1.38153C18.5223 2.41602 14.5896 6.20911 16.9835 17.2436C19.3773 28.278 18.3514 29.8297 15.2736 31.8987C12.1958 33.9677 -0.115272 42.5883 1.08164 48.278C2.27855 53.9676 0.910692 80.6917 8.60509 81.7262C16.2995 82.7606 23.31 80.8641 33.0563 76.0365C42.8025 71.2089 41.9476 70.3469 41.7766 68.1055C41.6056 65.8641 43.1445 65.0021 43.8285 64.3124C44.5124 63.6228 34.5952 63.6228 34.4242 64.8297C34.2532 66.0365 42.1186 63.9676 42.9735 62.7607C43.8285 61.5538 40.7507 60.0021 40.5797 61.0366C40.4087 62.071 43.1445 61.7262 43.6575 60.8641C44.1704 60.0021 43.3155 46.209 42.9735 45.0021C42.6316 43.7952 39.5538 41.7263 39.7248 40.6918C39.7807 40.3537 40.0009 39.9788 40.4452 39.6573M77 63.2779C76.3161 50.1745 71.1864 48.4504 64.3469 47.7607C57.5074 47.0711 56.3105 43.7952 55.6266 40.347C55.0794 37.5883 54.1447 35.8642 53.7457 35.347C53.7457 44.8642 61.6111 46.5538 65.5439 46.209C55.7976 45.3469 58.5334 31.0367 59.9013 23.1056C61.2692 15.1746 55.7976 11.5539 52.3778 8.79531C48.9581 6.03669 47.5902 6.20911 44.5124 10.1746C41.4346 14.1401 49.813 21.8987 52.0359 25.1746C54.2587 28.4504 54.7717 30.6918 53.7457 33.9677C52.7198 37.2435 48.4451 40.0021 44.6834 39.1401C40.9217 38.278 39.2118 33.9677 38.3569 30.6918C37.5019 27.416 38.8698 25.5194 41.0927 23.7953C43.3155 22.0711 42.8025 16.8987 42.8025 15.0022C42.8025 13.1056 43.8285 11.8987 46.2223 9.48496C48.6161 7.07117 45.7093 6.55394 39.7248 9.14013C33.7402 11.7263 34.7661 23.6229 35.1081 28.1056C35.4501 32.5884 36.989 34.8297 38.3569 39.1401C39.7248 43.4504 34.4242 45.6918 28.2686 47.5883C22.1131 49.4849 24.5069 60.0021 24.6779 63.7952C24.8489 67.5883 24.3359 69.1577 20.5742 70.1745C16.8125 71.1912 15.9575 70.5193 16.2995 65.3469C16.6415 60.1745 12.8798 46.3814 15.2736 51.0366C17.6674 55.6917 14.5896 66.3814 13.2217 68.7952C11.8539 71.209 12.5378 71.3814 13.9057 71.8986C15.2736 72.4158 12.5378 69.6572 11.1699 70.1745C9.802 70.6917 14.5896 71.3814 19.0353 71.0365C23.481 70.6917 24.3359 68.4503 25.7038 68.7952C27.0717 69.14 27.5847 74.14 26.7297 74.8296C25.8748 75.5193 25.1909 70.3469 26.3878 69.3124C27.5847 68.2779 28.9526 68.2779 29.9785 65.6917C31.0044 63.1055 34.0822 62.7607 39.5538 61.8986C45.0254 61.0366 44.5124 56.209 44.6834 55.3469C44.8544 54.4849 44.3414 54.8297 43.4865 55.8642C42.6316 56.8986 41.6056 56.5538 39.5538 55.3469C37.5019 54.14 37.16 52.9331 36.476 53.4504C35.7921 53.9676 36.989 53.9676 38.6989 53.1055C40.4087 52.2435 41.9476 55.0021 42.4606 55.6917C42.9735 56.3814 42.1186 48.278 42.2896 45.6918C42.4606 43.1056 42.4606 44.1562 44.6834 47.5883C46.9062 51.0204 47.4192 48.1056 44.1704 45.0021C40.9217 41.8987 40.7507 47.5883 39.8958 49.14C39.0408 50.6918 39.7248 48.1056 40.0667 45.8642C40.4087 43.6228 40.5797 44.1401 42.2896 44.6573C43.9995 45.1745 44.5124 42.4159 44.8544 41.5538C45.1964 40.6918 47.7612 40.5194 47.5902 40.0021C47.4192 39.4849 43.1445 40.6918 41.0927 40.347C39.0408 40.0021 41.0927 39.8297 42.8025 39.6573C44.5124 39.4849 44.3414 41.0366 43.8285 42.7607C43.3155 44.4849 42.6316 43.4504 43.1445 42.0711C43.6575 40.6918 45.8803 40.5194 46.7353 40.0021C47.4192 39.5883 46.9062 39.255 46.5643 39.1401C43.2262 38.5597 41.3604 38.9951 40.4452 39.6573M40.4452 39.6573C40.2051 38.5079 39.588 36.4504 39.0408 37.4159C38.3569 38.6228 39.1138 39.8297 40.4452 39.6573Z" stroke="#6D00B0"/>
</svg>
