<svg width="157" height="40" viewBox="0 0 157 40" fill="none" xmlns="http://www.w3.org/2000/svg">
<path d="M50.772 37.7036C52.2927 39.2242 54.2788 40 56.7615 40C58.4062 40 59.7717 39.5656 60.8268 38.6966C61.8819 37.8277 62.4095 36.7105 62.4095 35.3761C62.4405 32.3969 59.4303 31.1866 57.1649 30.4728C55.5822 29.8832 54.3098 29.1384 54.3098 28.0212C54.3098 26.7488 55.365 26.0661 56.9787 26.0661C58.4373 26.0661 60.051 26.5937 60.951 27.4626L62.1612 25.2903C60.8889 24.142 59.1821 23.5524 57.0718 23.5524C53.8443 23.5524 51.4237 25.2282 51.4237 28.0833C51.4237 31.1245 54.3719 32.1797 56.6373 33.0176C58.22 33.6072 59.4924 34.352 59.4924 35.4381C59.4924 36.7105 58.4373 37.4863 56.8235 37.4863C54.9926 37.4863 53.4719 36.8657 52.1996 35.6554L50.772 37.7036Z" fill="#251959"/>
<path d="M66.6383 33.8865C66.6383 37.0208 68.0968 38.5415 69.6795 39.2242C70.8278 39.6897 71.6967 39.7828 72.6587 39.7828C72.876 39.7828 73.2173 39.7518 73.7139 39.6897V37.0208C73.0622 37.145 72.2243 37.145 71.3243 36.7415C70.4554 36.3381 69.6485 35.4071 69.6485 33.5451V26.5316H73.4346V24.08H69.6485V19.6112H66.7003V24.08H64.5901V26.5316H66.6383V33.8865Z" fill="#251959"/>
<path d="M79.816 39.6276V33.1106C79.816 31.4038 80.2195 29.9142 81.0263 28.6419C81.8642 27.3695 83.0435 26.7178 84.6262 26.7178C85.0296 26.7178 85.34 26.7488 85.4951 26.7799V23.8007C85.1538 23.7696 84.9055 23.7386 84.6883 23.7386C82.3608 23.7386 80.4677 25.5075 79.6919 27.8971H79.6298L79.7229 26.7488V23.9248H76.8058V39.6276H79.816Z" fill="#251959"/>
<path d="M86.9646 31.7452C86.9646 34.1037 87.7715 36.0588 89.4162 37.6415C91.061 39.2242 93.0782 40 95.4367 40C97.7952 40 99.7813 39.2242 101.426 37.6415C103.071 36.0588 103.878 34.1037 103.878 31.7452C103.878 29.3867 103.071 27.4316 101.426 25.8799C99.7813 24.3282 97.7952 23.5524 95.4056 23.5524C93.0471 23.5524 91.061 24.3282 89.4162 25.9109C87.7715 27.4626 86.9646 29.4177 86.9646 31.7452ZM90.0369 31.7452C90.0369 30.1315 90.5645 28.797 91.5886 27.7419C92.6437 26.6868 93.916 26.1592 95.4367 26.1592C96.9263 26.1592 98.1986 26.6868 99.2538 27.7419C100.309 28.797 100.836 30.1315 100.836 31.7452C100.836 33.3589 100.309 34.6933 99.2538 35.7795C98.1986 36.8657 96.9263 37.3932 95.4367 37.3932C93.916 37.3932 92.6437 36.8657 91.5886 35.8105C90.5645 34.7244 90.0369 33.3899 90.0369 31.7452Z" fill="#251959"/>
<path d="M110.516 39.6276V32.3038C110.516 30.7211 110.95 29.3246 111.819 28.1143C112.688 26.904 113.837 26.2833 115.233 26.2833C117.374 26.2833 117.933 27.7419 117.933 30.2246V39.6276H120.943V32.3038C120.943 30.7211 121.378 29.3246 122.215 28.1143C123.084 26.904 124.202 26.2833 125.598 26.2833C127.739 26.2833 128.36 27.7109 128.36 30.2246V39.6276H131.37V29.5729C131.37 25.5075 129.757 23.5524 126.188 23.5524C124.977 23.5524 123.829 23.8938 122.805 24.6075C121.781 25.3213 121.067 26.1592 120.602 27.1212H120.54C120.012 24.7317 118.429 23.5524 115.854 23.5524C114.674 23.5524 113.557 23.9248 112.533 24.6696C111.509 25.4144 110.795 26.2833 110.392 27.2454H110.33L110.423 26.0661V23.9248H107.506V39.6276H110.516Z" fill="#251959"/>
<path d="M137.393 20.7594C138.233 20.7594 138.913 20.0786 138.913 19.2388C138.913 18.3989 138.233 17.7181 137.393 17.7181H137.331C136.491 17.7181 135.81 18.3989 135.81 19.2388C135.81 20.0786 136.491 20.7594 137.331 20.7594H137.393ZM138.882 39.6276V23.9248H135.872V39.6276H138.882Z" fill="#251959"/>
<path d="M145.123 39.6276L148.412 34.383L148.878 33.5451H148.94L149.437 34.383L152.726 39.6276H156.14L150.771 31.559L155.829 23.9248H152.385L149.468 28.7039C149.312 28.9832 149.157 29.2936 148.94 29.6349H148.878L148.381 28.7039L145.464 23.9248H142.02L147.078 31.559L141.709 39.6276H145.123Z" fill="#251959"/>
<path d="M33.4981 39.6276L39.86 17.2019L46.1597 39.6276H49.3251L41.4737 13.4863H38.2152L30.3638 39.6276H33.4981Z" fill="#251959"/>
<path fill-rule="evenodd" clip-rule="evenodd" d="M53.8296 9.54619C54.2701 7.78853 54.0793 6.54654 53.5847 5.67278C53.0901 4.79903 52.1234 3.9962 50.3897 3.46926C48.6363 2.93632 46.2721 2.74918 43.3855 3.02967C37.6201 3.58988 30.3263 5.96159 22.9677 10.127C15.6091 14.2924 9.82172 19.3254 6.37418 23.9802C4.64803 26.3109 3.59173 28.4342 3.14623 30.2119C2.70575 31.9695 2.89658 33.2115 3.39118 34.0853C3.88578 34.959 4.85243 35.7619 6.58613 36.2888C8.33957 36.8217 10.7037 37.0089 13.5904 36.7284C19.3557 36.1682 26.6496 33.7965 34.0082 29.6311C41.3668 25.4657 47.1541 20.4326 50.6017 15.7778C52.3278 13.4472 53.3841 11.3239 53.8296 9.54619ZM35.4367 32.1548C50.6911 23.5199 59.9461 11.0239 56.1084 4.24421C52.2707 -2.53551 36.7935 -1.03161 21.5391 7.60327C6.28475 16.2381 -2.97027 28.7341 0.867457 35.5139C4.70518 42.2936 20.1824 40.7897 35.4367 32.1548Z" fill="#251959"/>
</svg>