<svg width="157" height="40" fill="none" xmlns="http://www.w3.org/2000/svg"><path d="M50.772 37.704c1.52 1.52 3.507 2.296 5.99 2.296 1.644 0 3.01-.434 4.065-1.303 1.055-.87 1.583-1.986 1.583-3.32.03-2.98-2.98-4.19-5.245-4.904-1.583-.59-2.855-1.335-2.855-2.452 0-1.272 1.055-1.955 2.669-1.955 1.458 0 3.072.528 3.972 1.397l1.21-2.173c-1.272-1.148-2.979-1.738-5.09-1.738-3.227 0-5.647 1.676-5.647 4.531 0 3.042 2.948 4.097 5.213 4.935 1.583.59 2.855 1.334 2.855 2.42 0 1.273-1.055 2.048-2.668 2.048-1.831 0-3.352-.62-4.624-1.83l-1.428 2.048zM66.638 33.886c0 3.135 1.459 4.655 3.041 5.338 1.149.466 2.018.559 2.98.559.217 0 .558-.031 1.055-.093v-2.67a3.954 3.954 0 01-2.39-.279c-.869-.403-1.675-1.334-1.675-3.196v-7.013h3.786V24.08h-3.787v-4.469H66.7v4.469h-2.11v2.452h2.048v7.354zM79.816 39.628V33.11c0-1.707.403-3.197 1.21-4.47.838-1.271 2.017-1.923 3.6-1.923.404 0 .714.03.87.062V23.8c-.342-.03-.59-.061-.808-.061-2.327 0-4.22 1.768-4.996 4.158h-.062l.093-1.148v-2.824h-2.917v15.703h3.01zM86.965 31.745c0 2.359.806 4.314 2.451 5.896C91.061 39.224 93.078 40 95.436 40c2.36 0 4.345-.776 5.99-2.358 1.645-1.583 2.452-3.538 2.452-5.897 0-2.358-.807-4.313-2.452-5.865-1.645-1.552-3.63-2.328-6.02-2.328-2.359 0-4.345.776-5.99 2.359-1.644 1.552-2.451 3.507-2.451 5.834zm3.072 0c0-1.614.527-2.948 1.552-4.003 1.055-1.055 2.327-1.583 3.848-1.583 1.49 0 2.762.528 3.817 1.583 1.055 1.055 1.582 2.39 1.582 4.003 0 1.614-.527 2.948-1.582 4.034-1.055 1.087-2.328 1.614-3.817 1.614-1.521 0-2.793-.527-3.848-1.583-1.025-1.086-1.552-2.42-1.552-4.065zM110.516 39.628v-7.324c0-1.583.434-2.98 1.303-4.19.869-1.21 2.018-1.83 3.414-1.83 2.141 0 2.7 1.458 2.7 3.94v9.404h3.01v-7.324c0-1.583.435-2.98 1.272-4.19.869-1.21 1.987-1.83 3.383-1.83 2.141 0 2.762 1.427 2.762 3.94v9.404h3.01V29.573c0-4.066-1.613-6.02-5.182-6.02a5.818 5.818 0 00-3.383 1.055c-1.024.713-1.738 1.551-2.203 2.513h-.062c-.528-2.39-2.111-3.569-4.686-3.569-1.18 0-2.297.373-3.321 1.118-1.024.744-1.738 1.613-2.141 2.575h-.062l.093-1.179v-2.141h-2.917v15.703h3.01zM137.393 20.76a1.52 1.52 0 100-3.042h-.062a1.52 1.52 0 100 3.041h.062zm1.489 18.868V23.925h-3.01v15.703h3.01zM145.123 39.628l3.289-5.245.466-.838h.062l.497.838 3.289 5.245h3.414l-5.369-8.069 5.058-7.634h-3.444l-2.917 4.779c-.156.28-.311.59-.528.93h-.062l-.497-.93-2.917-4.78h-3.444l5.058 7.635-5.369 8.069h3.414zM33.498 39.628l6.362-22.426 6.3 22.426h3.165l-7.851-26.142h-3.259l-7.851 26.142h3.134z" fill="#251959"/><path fill-rule="evenodd" clip-rule="evenodd" d="M53.83 9.546c.44-1.757.25-3-.245-3.873-.495-.874-1.462-1.677-3.195-2.204-1.754-.533-4.118-.72-7.005-.44-5.765.56-13.059 2.933-20.417 7.098-7.359 4.165-13.146 9.198-16.594 13.853-1.726 2.33-2.782 4.454-3.228 6.232-.44 1.758-.25 3 .245 3.873.495.874 1.461 1.677 3.195 2.204 1.754.533 4.118.72 7.004.44 5.766-.56 13.06-2.932 20.418-7.098 7.359-4.165 13.146-9.198 16.594-13.853 1.726-2.33 2.782-4.454 3.228-6.232zM35.437 32.155c15.254-8.635 24.51-21.131 20.671-27.91-3.837-6.78-19.314-5.277-34.569 3.358C6.285 16.238-2.97 28.734.867 35.513c3.838 6.78 19.315 5.277 34.57-3.358z" fill="#251959"/></svg>