<svg width="1920" height="1627" viewBox="0 0 1920 1627" fill="none" xmlns="http://www.w3.org/2000/svg">
    <g clip-path="url(#clip0)">
        <rect width="1920" height="1627" fill="#11072F"/>
        <g style="mix-blend-mode:overlay">
            <circle cx="146" cy="343" r="124" stroke="url(#paint0_linear)" stroke-width="2" stroke-dasharray="2 5"/>
        </g>
        <g style="mix-blend-mode:overlay">
            <ellipse cx="146" cy="343" rx="124" ry="41" stroke="url(#paint1_linear)" stroke-width="2" stroke-dasharray="2 5"/>
        </g>
        <g style="mix-blend-mode:overlay" opacity="0.85" filter="url(#filter0_f)">
            <circle cx="1934" cy="551" r="454" fill="#184BFF"/>
        </g>
        <path d="M190 545L190.401 548.101C191.042 553.057 194.943 556.958 199.899 557.599L203 558L199.899 558.401C194.943 559.042 191.042 562.943 190.401 567.899L190 571L189.599 567.899C188.958 562.943 185.057 559.042 180.101 558.401L177 558L180.101 557.599C185.057 556.958 188.958 553.057 189.599 548.101L190 545Z" fill="white"/>
        <path d="M135.5 246L136.302 252.2C136.943 257.156 140.844 261.057 145.8 261.698L152 262.5L145.8 263.302C140.844 263.943 136.943 267.844 136.302 272.8L135.5 279L134.698 272.8C134.057 267.844 130.156 263.943 125.2 263.302L119 262.5L125.2 261.698C130.156 261.057 134.057 257.156 134.698 252.2L135.5 246Z" fill="white"/>
        <path d="M741.5 99L742.302 105.2C742.943 110.156 746.844 114.057 751.8 114.698L758 115.5L751.8 116.302C746.844 116.943 742.943 120.844 742.302 125.8L741.5 132L740.698 125.8C740.057 120.844 736.156 116.943 731.2 116.302L725 115.5L731.2 114.698C736.156 114.057 740.057 110.156 740.698 105.2L741.5 99Z" fill="white"/>
        <path d="M1647.5 566L1648.3 572.2C1648.94 577.156 1652.84 581.057 1657.8 581.698L1664 582.5L1657.8 583.302C1652.84 583.943 1648.94 587.844 1648.3 592.8L1647.5 599L1646.7 592.8C1646.06 587.844 1642.16 583.943 1637.2 583.302L1631 582.5L1637.2 581.698C1642.16 581.057 1646.06 577.156 1646.7 572.2L1647.5 566Z" fill="white"/>
        <path d="M1408.5 99L1409.99 110.513C1410.63 115.469 1414.53 119.369 1419.49 120.011L1431 121.5L1419.49 122.989C1414.53 123.631 1410.63 127.531 1409.99 132.487L1408.5 144L1407.01 132.487C1406.37 127.531 1402.47 123.631 1397.51 122.989L1386 121.5L1397.51 120.011C1402.47 119.369 1406.37 115.469 1407.01 110.513L1408.5 99Z" fill="white"/>
        <path d="M974.5 179L974.865 181.818C975.156 184.071 976.929 185.844 979.182 186.135L982 186.5L979.182 186.865C976.929 187.156 975.156 188.929 974.865 191.182L974.5 194L974.135 191.182C973.844 188.929 972.071 187.156 969.818 186.865L967 186.5L969.818 186.135C972.071 185.844 973.844 184.071 974.135 181.818L974.5 179Z" fill="white"/>
        <path d="M1604.5 376L1604.77 378.054C1605.12 380.757 1607.24 382.885 1609.95 383.234L1612 383.5L1609.95 383.766C1607.24 384.115 1605.12 386.243 1604.77 388.946L1604.5 391L1604.23 388.946C1603.88 386.243 1601.76 384.115 1599.05 383.766L1597 383.5L1599.05 383.234C1601.76 382.885 1603.88 380.757 1604.23 378.054L1604.5 376Z" fill="white"/>
        <path d="M1806.5 167L1807.14 171.952C1807.61 175.556 1810.44 178.393 1814.05 178.859L1819 179.5L1814.05 180.141C1810.44 180.607 1807.61 183.444 1807.14 187.048L1806.5 192L1805.86 187.048C1805.39 183.444 1802.56 180.607 1798.95 180.141L1794 179.5L1798.95 178.859C1802.56 178.393 1805.39 175.556 1805.86 171.952L1806.5 167Z" fill="white"/>
        <path d="M1639.5 1066L1639.88 1068.94C1640.23 1071.64 1642.36 1073.77 1645.06 1074.12L1648 1074.5L1645.06 1074.88C1642.36 1075.23 1640.23 1077.36 1639.88 1080.06L1639.5 1083L1639.12 1080.06C1638.77 1077.36 1636.64 1075.23 1633.94 1074.88L1631 1074.5L1633.94 1074.12C1636.64 1073.77 1638.77 1071.64 1639.12 1068.94L1639.5 1066Z" fill="white"/>
        <path d="M658.5 1239L658.979 1242.7C659.271 1244.96 661.044 1246.73 663.296 1247.02L667 1247.5L663.296 1247.98C661.044 1248.27 659.271 1250.04 658.979 1252.3L658.5 1256L658.021 1252.3C657.729 1250.04 655.956 1248.27 653.704 1247.98L650 1247.5L653.704 1247.02C655.956 1246.73 657.729 1244.96 658.021 1242.7L658.5 1239Z" fill="white"/>
        <path d="M203.5 946L203.635 947.047C203.927 949.3 205.7 951.073 207.953 951.365L209 951.5L207.953 951.635C205.7 951.927 203.927 953.7 203.635 955.953L203.5 957L203.365 955.953C203.073 953.7 201.3 951.927 199.047 951.635L198 951.5L199.047 951.365C201.3 951.073 203.073 949.3 203.365 947.047L203.5 946Z" fill="white"/>
        <path d="M324.5 644L324.734 645.812C324.968 647.614 326.386 649.032 328.188 649.266L330 649.5L328.188 649.734C326.386 649.968 324.968 651.386 324.734 653.188L324.5 655L324.266 653.188C324.032 651.386 322.614 649.968 320.812 649.734L319 649.5L320.812 649.266C322.614 649.032 324.032 647.614 324.266 645.812L324.5 644Z" fill="white"/>
        <path d="M680.5 405L680.734 406.812C680.968 408.614 682.386 410.032 684.188 410.266L686 410.5L684.188 410.734C682.386 410.968 680.968 412.386 680.734 414.188L680.5 416L680.266 414.188C680.032 412.386 678.614 410.968 676.812 410.734L675 410.5L676.812 410.266C678.614 410.032 680.032 408.614 680.266 406.812L680.5 405Z" fill="white"/>
        <path d="M242.5 39L242.734 40.8119C242.968 42.6139 244.386 44.0325 246.188 44.2656L248 44.5L246.188 44.7344C244.386 44.9675 242.968 46.3861 242.734 48.1881L242.5 50L242.266 48.1881C242.032 46.3861 240.614 44.9675 238.812 44.7344L237 44.5L238.812 44.2656C240.614 44.0325 242.032 42.6139 242.266 40.8119L242.5 39Z" fill="white"/>
        <path d="M1839.5 859L1839.73 860.812C1839.97 862.614 1841.39 864.032 1843.19 864.266L1845 864.5L1843.19 864.734C1841.39 864.968 1839.97 866.386 1839.73 868.188L1839.5 870L1839.27 868.188C1839.03 866.386 1837.61 864.968 1835.81 864.734L1834 864.5L1835.81 864.266C1837.61 864.032 1839.03 862.614 1839.27 860.812L1839.5 859Z" fill="white"/>
        <path d="M1701.5 1273L1701.73 1274.81C1701.97 1276.61 1703.39 1278.03 1705.19 1278.27L1707 1278.5L1705.19 1278.73C1703.39 1278.97 1701.97 1280.39 1701.73 1282.19L1701.5 1284L1701.27 1282.19C1701.03 1280.39 1699.61 1278.97 1697.81 1278.73L1696 1278.5L1697.81 1278.27C1699.61 1278.03 1701.03 1276.61 1701.27 1274.81L1701.5 1273Z" fill="white"/>
        <g style="mix-blend-mode:overlay" opacity="0.45">
            <circle cx="1804" cy="425" r="176.777" transform="rotate(-45 1804 425)" stroke="url(#paint2_linear)" stroke-width="2"/>
            <ellipse cx="1804" cy="425" rx="145.115" ry="65.9614" transform="rotate(-45 1804 425)" stroke="url(#paint3_linear)" stroke-width="2" stroke-dasharray="4 5"/>
            <ellipse cx="1804" cy="425" rx="145.115" ry="65.9614" transform="rotate(45 1804 425)" stroke="url(#paint4_linear)" stroke-width="2" stroke-dasharray="4 5"/>
            <circle cx="1804" cy="425" r="145.115" transform="rotate(-45 1804 425)" stroke="url(#paint5_linear)" stroke-width="2"/>
        </g>
        <g style="mix-blend-mode:screen" opacity="0.5" filter="url(#filter1_f)">
            <circle cx="168" cy="225" r="520" fill="#AA3EFF"/>
        </g>
        <g style="mix-blend-mode:color-dodge" opacity="0.5" filter="url(#filter2_f)">
            <circle cx="697" cy="1119" r="520" fill="#2F159A"/>
        </g>
        <g style="mix-blend-mode:color-dodge" opacity="0.5" filter="url(#filter3_f)">
            <circle cx="161" cy="893" r="214" fill="#3BDDE8"/>
        </g>
        <g style="mix-blend-mode:color-dodge" opacity="0.34" filter="url(#filter4_f)">
            <circle cx="1366" cy="1090" r="406" fill="#C082FF"/>
        </g>
        <g style="mix-blend-mode:hard-light" opacity="0.29" filter="url(#filter5_f)">
            <circle cx="1273.5" cy="160.5" r="598.5" fill="#E137FD"/>
        </g>
        <g style="mix-blend-mode:overlay">
            <circle r="145.134" transform="matrix(-0.707107 -0.707107 -0.707107 0.707107 61.25 1173.25)" stroke="url(#paint6_linear)" stroke-width="2" stroke-dasharray="2 5"/>
        </g>
        <g style="mix-blend-mode:overlay" opacity="0.5">
            <circle r="88.3883" transform="matrix(-0.707107 -0.707107 -0.707107 0.707107 330 775)" stroke="url(#paint7_linear)" stroke-width="2"/>
        </g>
    </g>
    <defs>
        <filter id="filter0_f" x="1230" y="-153" width="1408" height="1408" filterUnits="userSpaceOnUse" color-interpolation-filters="sRGB">
            <feFlood flood-opacity="0" result="BackgroundImageFix"/>
            <feBlend mode="normal" in="SourceGraphic" in2="BackgroundImageFix" result="shape"/>
            <feGaussianBlur stdDeviation="125" result="effect1_foregroundBlur"/>
        </filter>
        <filter id="filter1_f" x="-602" y="-545" width="1540" height="1540" filterUnits="userSpaceOnUse" color-interpolation-filters="sRGB">
            <feFlood flood-opacity="0" result="BackgroundImageFix"/>
            <feBlend mode="normal" in="SourceGraphic" in2="BackgroundImageFix" result="shape"/>
            <feGaussianBlur stdDeviation="125" result="effect1_foregroundBlur"/>
        </filter>
        <filter id="filter2_f" x="-73" y="349" width="1540" height="1540" filterUnits="userSpaceOnUse" color-interpolation-filters="sRGB">
            <feFlood flood-opacity="0" result="BackgroundImageFix"/>
            <feBlend mode="normal" in="SourceGraphic" in2="BackgroundImageFix" result="shape"/>
            <feGaussianBlur stdDeviation="125" result="effect1_foregroundBlur"/>
        </filter>
        <filter id="filter3_f" x="-303" y="429" width="928" height="928" filterUnits="userSpaceOnUse" color-interpolation-filters="sRGB">
            <feFlood flood-opacity="0" result="BackgroundImageFix"/>
            <feBlend mode="normal" in="SourceGraphic" in2="BackgroundImageFix" result="shape"/>
            <feGaussianBlur stdDeviation="125" result="effect1_foregroundBlur"/>
        </filter>
        <filter id="filter4_f" x="710" y="434" width="1312" height="1312" filterUnits="userSpaceOnUse" color-interpolation-filters="sRGB">
            <feFlood flood-opacity="0" result="BackgroundImageFix"/>
            <feBlend mode="normal" in="SourceGraphic" in2="BackgroundImageFix" result="shape"/>
            <feGaussianBlur stdDeviation="125" result="effect1_foregroundBlur"/>
        </filter>
        <filter id="filter5_f" x="425" y="-688" width="1697" height="1697" filterUnits="userSpaceOnUse" color-interpolation-filters="sRGB">
            <feFlood flood-opacity="0" result="BackgroundImageFix"/>
            <feBlend mode="normal" in="SourceGraphic" in2="BackgroundImageFix" result="shape"/>
            <feGaussianBlur stdDeviation="125" result="effect1_foregroundBlur"/>
        </filter>
        <linearGradient id="paint0_linear" x1="49.1426" y1="240.167" x2="267.238" y2="336.389" gradientUnits="userSpaceOnUse">
            <stop stop-color="#CCE1FD"/>
            <stop offset="0.427083" stop-color="#DCD5FC"/>
            <stop offset="0.427183" stop-color="#C5E6FA"/>
            <stop offset="0.729167" stop-color="#C9D3FA"/>
            <stop offset="1" stop-color="#89E6FA"/>
        </linearGradient>
        <linearGradient id="paint1_linear" x1="49.1426" y1="308.999" x2="142.849" y2="434.035" gradientUnits="userSpaceOnUse">
            <stop stop-color="#CCE1FD"/>
            <stop offset="0.427083" stop-color="#DCD5FC"/>
            <stop offset="0.427183" stop-color="#C5E6FA"/>
            <stop offset="0.729167" stop-color="#C9D3FA"/>
            <stop offset="1" stop-color="#89E6FA"/>
        </linearGradient>
        <linearGradient id="paint2_linear" x1="1665.92" y1="278.399" x2="1976.84" y2="415.576" gradientUnits="userSpaceOnUse">
            <stop stop-color="#CCE1FD"/>
            <stop offset="0.427083" stop-color="#DCD5FC"/>
            <stop offset="0.427183" stop-color="#C5E6FA"/>
            <stop offset="0.729167" stop-color="#C9D3FA"/>
            <stop offset="1" stop-color="#89E6FA"/>
        </linearGradient>
        <linearGradient id="paint3_linear" x1="1690.65" y1="370.298" x2="1847.65" y2="522.688" gradientUnits="userSpaceOnUse">
            <stop stop-color="#CCE1FD"/>
            <stop offset="0.427083" stop-color="#DCD5FC"/>
            <stop offset="0.427183" stop-color="#C5E6FA"/>
            <stop offset="0.729167" stop-color="#C9D3FA"/>
            <stop offset="1" stop-color="#89E6FA"/>
        </linearGradient>
        <linearGradient id="paint4_linear" x1="1690.65" y1="370.298" x2="1847.65" y2="522.688" gradientUnits="userSpaceOnUse">
            <stop stop-color="#CCE1FD"/>
            <stop offset="0.427083" stop-color="#DCD5FC"/>
            <stop offset="0.427183" stop-color="#C5E6FA"/>
            <stop offset="0.729167" stop-color="#C9D3FA"/>
            <stop offset="1" stop-color="#89E6FA"/>
        </linearGradient>
        <linearGradient id="paint5_linear" x1="1690.65" y1="304.656" x2="1945.88" y2="417.264" gradientUnits="userSpaceOnUse">
            <stop stop-color="#CCE1FD"/>
            <stop offset="0.427083" stop-color="#DCD5FC"/>
            <stop offset="0.427183" stop-color="#C5E6FA"/>
            <stop offset="0.729167" stop-color="#C9D3FA"/>
            <stop offset="1" stop-color="#89E6FA"/>
        </linearGradient>
        <linearGradient id="paint6_linear" x1="31.7686" y1="24.7742" x2="287.035" y2="137.396" gradientUnits="userSpaceOnUse">
            <stop stop-color="#CCE1FD"/>
            <stop offset="0.427083" stop-color="#DCD5FC"/>
            <stop offset="0.427183" stop-color="#C5E6FA"/>
            <stop offset="0.729167" stop-color="#C9D3FA"/>
            <stop offset="1" stop-color="#89E6FA"/>
        </linearGradient>
        <linearGradient id="paint7_linear" x1="19.3475" y1="15.0878" x2="174.808" y2="83.6762" gradientUnits="userSpaceOnUse">
            <stop stop-color="#CCE1FD"/>
            <stop offset="0.427083" stop-color="#DCD5FC"/>
            <stop offset="0.427183" stop-color="#C5E6FA"/>
            <stop offset="0.729167" stop-color="#C9D3FA"/>
            <stop offset="1" stop-color="#89E6FA"/>
        </linearGradient>
        <clipPath id="clip0">
            <rect width="1920" height="1627" fill="white"/>
        </clipPath>
    </defs>
</svg>
