<svg width="2341" height="731" viewBox="0 0 2341 731" fill="none" xmlns="http://www.w3.org/2000/svg">
    <path d="M996.769 69.5207L1018.9 120.825L1070.36 99.0486C1082.45 93.9317 1087.52 79.5308 1081.32 67.9621C1074.85 55.9111 1059.16 52.4636 1048.24 60.6936L1040.77 66.3217L1039.26 57.0916C1037.06 43.5944 1023.34 35.2409 1010.34 39.4798C997.855 43.5491 991.569 57.4657 996.769 69.5207Z" stroke="#E09FFF"/>
    <path d="M922.851 45.4756L949.745 52.5487L957.003 25.7036C958.709 19.3959 954.624 12.9868 948.186 11.8687C941.48 10.7041 935.314 15.7935 935.187 22.5989L935.1 27.2528L931.021 25.0108C925.056 21.7324 917.572 24.5449 915.243 30.9406C913.007 37.0803 916.531 43.8137 922.851 45.4756Z" stroke="#E09FFF"/>
    <path d="M1130.09 93.8308L1132.74 108.884L1147.81 106.334C1151.35 105.735 1153.62 102.222 1152.69 98.7509C1151.73 95.135 1147.77 93.2274 1144.35 94.7289L1142 95.7558L1142.18 93.2037C1142.45 89.4717 1139.32 86.3823 1135.6 86.6902C1132.02 86.9858 1129.47 90.2937 1130.09 93.8308Z" stroke="#E09FFF"/>
    <path d="M1049.82 158.253L1060.97 162.209L1065.01 151.078C1065.95 148.463 1064.45 145.599 1061.76 144.896C1058.95 144.164 1056.16 146.104 1055.86 148.986L1055.66 150.957L1054.01 149.861C1051.59 148.259 1048.32 149.186 1047.1 151.816C1045.94 154.342 1047.19 157.323 1049.82 158.253Z" stroke="#E09FFF"/>
    <path d="M91.8156 185.253L102.974 189.209L107.007 178.078C107.954 175.463 106.449 172.599 103.758 171.896C100.954 171.164 98.1578 173.104 97.8621 175.986L97.6598 177.957L96.009 176.861C93.5949 175.259 90.3202 176.186 89.1048 178.816C87.938 181.342 89.1938 184.323 91.8156 185.253Z" stroke="#E09FFF"/>
    <path d="M287.134 711.175L310.31 719.392L318.687 696.273C320.655 690.841 317.529 684.892 311.939 683.431C306.116 681.91 300.307 685.94 299.693 691.927L299.273 696.021L295.844 693.745C290.83 690.416 284.028 692.342 281.504 697.805C279.08 703.051 281.689 709.244 287.134 711.175Z" stroke="#E09FFF"/>
    <path d="M227.955 408.266L232.371 433.137L257.272 428.892C263.123 427.895 266.851 422.085 265.319 416.35C263.724 410.377 257.178 407.233 251.519 409.721L247.648 411.423L247.942 407.205C248.373 401.037 243.202 395.938 237.041 396.455C231.126 396.951 226.917 402.422 227.955 408.266Z" stroke="#E09FFF"/>
    <path d="M1020.81 341.716L1022.88 353.372L1034.55 351.383C1037.29 350.915 1039.04 348.192 1038.32 345.505C1037.57 342.705 1034.5 341.231 1031.85 342.398L1030.04 343.195L1030.18 341.218C1030.38 338.328 1027.95 335.938 1025.07 336.18C1022.29 336.413 1020.32 338.977 1020.81 341.716Z" stroke="#E09FFF"/>
    <path d="M2061.95 88.8631L2072.89 93.3796L2077.48 82.4677C2078.56 79.9037 2077.21 76.9671 2074.55 76.1285C2071.79 75.255 2068.9 77.0508 2068.46 79.9147L2068.16 81.8732L2066.56 80.6949C2064.23 78.9718 2060.92 79.7319 2059.57 82.2974C2058.27 84.7603 2059.38 87.8018 2061.95 88.8631Z" stroke="#E09FFF"/>
    <path d="M2064.85 402.122L2082.57 409.437L2090.01 391.764C2091.75 387.612 2089.56 382.856 2085.26 381.498C2080.78 380.083 2076.1 382.991 2075.39 387.63L2074.9 390.801L2072.32 388.893C2068.55 386.103 2063.17 387.334 2060.99 391.489C2058.9 395.477 2060.68 400.403 2064.85 402.122Z" stroke="#E09FFF"/>
    <path d="M1829.8 26.1019L1833.04 45.0007L1851.96 41.8967C1856.4 41.1673 1859.26 36.7749 1858.12 32.4151C1856.94 27.8735 1851.99 25.4558 1847.68 27.3178L1844.73 28.5912L1844.98 25.3911C1845.33 20.7116 1841.43 16.8169 1836.75 17.1797C1832.26 17.5281 1829.04 21.6613 1829.8 26.1019Z" stroke="#E09FFF"/>
    <path d="M2283.69 679.324L2286.93 698.223L2305.85 695.119C2310.29 694.389 2313.15 689.997 2312.02 685.637C2310.83 681.095 2305.88 678.678 2301.57 680.54L2298.63 681.813L2298.87 678.613C2299.22 673.934 2295.32 670.039 2290.64 670.402C2286.15 670.75 2282.93 674.883 2283.69 679.324Z" stroke="#E09FFF"/>
    <path d="M2321.67 273.517L2323.31 283.081L2332.88 281.51C2335.13 281.141 2336.58 278.918 2336 276.712C2335.4 274.414 2332.9 273.19 2330.72 274.132L2329.23 274.777L2329.35 273.157C2329.53 270.789 2327.55 268.818 2325.19 269.002C2322.91 269.178 2321.28 271.27 2321.67 273.517Z" stroke="#E09FFF"/>
    <path d="M6.42324 596.767L8.05998 606.331L17.635 604.76C19.8848 604.391 21.3308 602.168 20.7563 599.962C20.158 597.663 17.6511 596.44 15.4711 597.382L13.9803 598.027L14.1034 596.407C14.2834 594.039 12.3095 592.068 9.94165 592.252C7.66857 592.428 6.03866 594.52 6.42324 596.767Z" stroke="#E09FFF"/>
</svg>
