<svg width="65" height="68" viewBox="0 0 65 68" fill="none" xmlns="http://www.w3.org/2000/svg">
    <path d="M32.5 0V7.55556M32.5 68V60.3912M32.5 34V23.4116M32.5 34L21.7812 28.7313M32.5 34L43.2187 28.7313M32.5 34L43.2187 39.1963M32.5 34V44.1628M32.5 34L21.7812 39.1963M1 18.5164L8 21.9572M64 49.2707L57.1641 45.9568M64 18.5164L57.1641 21.8766M1 49.2707L8.05469 45.8507M32.5 23.4116L21.7812 16.6009V28.7313M32.5 23.4116L43.2187 16.6009V28.7313M32.5 23.4116V15.1111M21.7812 28.7313L13.3594 34L21.7812 39.1963M21.7812 28.7313L15.1094 25.4518M43.2187 28.7313L51.8594 34L43.2187 39.1963M43.2187 28.7313L50.3281 25.2367M43.2187 39.1963V51.1862L32.5 44.1628M43.2187 39.1963L50.1914 42.5765M32.5 44.1628L21.7812 51.1862V39.1963M32.5 44.1628V52.7825M21.7812 39.1963L15.1094 42.4307M50.3281 16.6009V25.2367M50.3281 25.2367L57.5469 29.6901M50.3281 25.2367L57.1641 21.8766M57.1641 21.8766V16.6009M57.1641 21.8766L61.5938 24.6886M15.1094 16.6009V25.4518M15.1094 25.4518L7.125 29.6901M15.1094 25.4518L8 21.9572M8 16.6009V21.9572M8 21.9572L3.84375 24.6886M7.125 37.9906L15.1094 42.4307M15.1094 42.4307V51.1862M15.1094 42.4307L8.05469 45.8507M3.84375 43.0986L8.05469 45.8507M8.05469 45.8507V51.1862M57.1641 51.1862V45.9568M57.1641 45.9568L61.5938 43.0986M57.1641 45.9568L50.1914 42.5765M57.5469 37.9906L50.1914 42.5765M50.1914 42.5765V51.1862M41.7969 7.66197L32.5 15.1111M32.5 15.1111L23.0938 7.66197M32.5 15.1111V7.55556M32.5 7.55556L27.4688 2.66041M32.5 7.55556L37.3125 2.66041M23.0938 60.7637L32.5 52.7825M32.5 52.7825L41.7969 60.7637M32.5 52.7825V60.3912M32.5 60.3912L27.4688 65.1268M32.5 60.3912L37.3125 64.5947" stroke="#B4A3FF"/>
</svg>
