<svg width="558" height="592" viewBox="0 0 558 592" fill="none" xmlns="http://www.w3.org/2000/svg">
    <g filter="url(#filter0_f)">
        <path d="M279 25V85.2222M279 567V506.354M279 296V211.604M279 296L193.59 254.005M279 296L364.41 254.005M279 296L364.41 337.417M279 296V377.003M279 296L193.59 337.418M28 172.587L83.7778 200.012M530 417.717L475.53 391.303M530 172.587L475.53 199.369M28 417.717L84.2135 390.457M279 211.604L193.59 157.319V254.005M279 211.604L364.41 157.319V254.005M279 211.604V145.444M193.59 254.005L126.483 296L193.59 337.418M193.59 254.005L140.427 227.866M364.41 254.005L433.26 296L364.41 337.417M364.41 254.005L421.059 226.152M364.41 337.417V432.984L279 377.003M364.41 337.417L419.97 364.36M279 377.003L193.59 432.984V337.418M279 377.003V445.707M193.59 337.418L140.427 363.198M421.059 157.319V226.152M421.059 226.152L478.58 261.648M421.059 226.152L475.53 199.369M475.53 199.369V157.319M475.53 199.369L510.826 221.782M140.427 157.319V227.866M140.427 227.866L76.8056 261.648M140.427 227.866L83.7778 200.012M83.7778 157.319V200.012M83.7778 200.012L50.6597 221.782M76.8056 327.808L140.427 363.198M140.427 363.198V432.984M140.427 363.198L84.2135 390.457M50.6597 368.521L84.2135 390.457M84.2135 390.457V432.984M475.53 432.984V391.303M475.53 391.303L510.826 368.521M475.53 391.303L419.97 364.36M478.58 327.808L419.97 364.36M419.97 364.36V432.984M353.08 86.0704L279 145.444M279 145.444L204.049 86.0704M279 145.444V85.2222M279 85.2222L238.91 46.205M279 85.2222L317.347 46.205M204.049 509.322L279 445.707M279 445.707L353.08 509.322M279 445.707V506.354M279 506.354L238.91 544.099M279 506.354L317.347 539.858" stroke="#B4A3FF" stroke-width="10"/>
    </g>
    <defs>
        <filter id="filter0_f" x="0.793823" y="0" width="556.412" height="592" filterUnits="userSpaceOnUse" color-interpolation-filters="sRGB">
            <feFlood flood-opacity="0" result="BackgroundImageFix"/>
            <feBlend mode="normal" in="SourceGraphic" in2="BackgroundImageFix" result="shape"/>
            <feGaussianBlur stdDeviation="12.5" result="effect1_foregroundBlur"/>
        </filter>
    </defs>
</svg>
