<svg width="386" height="410" viewBox="0 0 386 410" fill="none" xmlns="http://www.w3.org/2000/svg">
    <g filter="url(#filter0_f)">
        <path d="M193 16V58M193 394V351.704M193 205V146.141M193 205L133.451 175.712M193 205L252.549 175.712M193 205L252.549 233.885M193 205V261.493M193 205L133.451 233.885M18 118.93L56.8889 138.056M368 289.887L330.023 271.466M368 118.93L330.023 137.608M18 289.887L57.1927 270.876M193 146.141L133.451 108.282V175.712M193 146.141L252.549 108.282V175.712M193 146.141V100M133.451 175.712L86.6632 205L133.451 233.885M133.451 175.712L96.3854 157.482M252.549 175.712L300.552 205L252.549 233.885M252.549 175.712L292.045 156.287M252.549 233.885V300.535L193 261.493M252.549 233.885L291.286 252.675M193 261.493L133.451 300.535V233.885M193 261.493V309.408M133.451 233.885L96.3854 251.865M292.045 108.282V156.287M292.045 156.287L332.149 181.042M292.045 156.287L330.023 137.608M330.023 137.608V108.282M330.023 137.608L354.632 153.239M96.3854 108.282V157.482M96.3854 157.482L52.0278 181.042M96.3854 157.482L56.8889 138.056M56.8889 108.282V138.056M56.8889 138.056L33.7986 153.239M52.0278 227.183L96.3854 251.865M96.3854 251.865V300.535M96.3854 251.865L57.1927 270.876M33.7986 255.577L57.1927 270.876M57.1927 270.876V300.535M330.023 300.535V271.466M330.023 271.466L354.632 255.577M330.023 271.466L291.286 252.675M332.149 227.183L291.286 252.675M291.286 252.675V300.535M244.649 58.5915L193 100M193 100L140.743 58.5915M193 100V58M193 58L165.049 30.7887M193 58L219.736 30.7887M140.743 353.775L193 309.408M193 309.408L244.649 353.775M193 309.408V351.704M193 351.704L165.049 378.028M193 351.704L219.736 375.07" stroke="#B4A3FF" stroke-width="5"/>
    </g>
    <defs>
        <filter id="filter0_f" x="0.896667" y="0" width="384.207" height="410" filterUnits="userSpaceOnUse" color-interpolation-filters="sRGB">
            <feFlood flood-opacity="0" result="BackgroundImageFix"/>
            <feBlend mode="normal" in="SourceGraphic" in2="BackgroundImageFix" result="shape"/>
            <feGaussianBlur stdDeviation="8" result="effect1_foregroundBlur"/>
        </filter>
    </defs>
</svg>
