<?xml version="1.0" standalone="no"?>
<!DOCTYPE svg PUBLIC "-//W3C//DTD SVG 20010904//EN"
 "http://www.w3.org/TR/2001/REC-SVG-20010904/DTD/svg10.dtd">
<svg version="1.0" xmlns="http://www.w3.org/2000/svg"
 width="100.000000pt" height="100.000000pt" viewBox="0 0 100.000000 100.000000"
 preserveAspectRatio="xMidYMid meet">
<metadata>
Created by potrace 1.11, written by Peter Selinger 2001-2013
</metadata>
<g transform="translate(0.000000,100.000000) scale(0.100000,-0.100000)"
fill="#000000" stroke="none">
<path d="M685 825 c-174 -39 -340 -123 -488 -247 -291 -244 -249 -476 78 -427
62 10 198 52 243 75 36 19 43 9 26 -38 -7 -22 -14 -42 -14 -43 0 -2 12 -2 26
0 32 3 38 12 53 78 11 48 16 55 75 94 l64 42 17 -62 c37 -140 43 -153 70 -153
14 0 25 4 25 10 0 5 -16 60 -35 123 l-36 113 58 58 c99 99 135 158 147 237 8
52 -19 103 -67 128 -47 24 -162 30 -242 12z m194 -46 c49 -15 60 -26 66 -70 6
-46 -35 -125 -103 -200 -30 -32 -57 -59 -61 -59 -4 0 -18 33 -31 74 -24 77
-44 96 -74 72 -8 -6 -24 -45 -36 -86 -55 -194 -57 -198 -111 -226 -132 -66
-312 -105 -400 -85 -122 27 -98 153 57 306 188 185 534 322 693 274z m-165
-303 c9 -30 16 -58 16 -63 0 -11 -80 -67 -80 -56 0 10 44 173 47 173 1 0 9
-24 17 -54z"/>
</g>
</svg>
