<svg width="121" height="107" viewBox="0 0 121 107" fill="none" xmlns="http://www.w3.org/2000/svg">
    <rect x="21" y="7" width="100" height="100" rx="15" fill="#F3DBFE"/>
    <path d="M49.5 15H47C47 14 47 10.9 47 6.5C47 2.1 50.6667 1 52.5 1C53.5 1 56.4 1 60 1C63.6 1 64.5 3.33333 64.5 4.5C67.3 4.5 68 6.83333 68 8V16C67.436 16 66.9384 15.9264 66.5 15.7964M49.5 15H59C60.5 15 63.5 14.3 63.5 11.5C63.5 12.765 64.1401 15.0969 66.5 15.7964M49.5 15V21.5C49.5 23.8333 51.2 28.5 58 28.5C64.8 28.5 66.5 23.8333 66.5 21.5V15.7964" stroke="#5F458A" stroke-width="2"/>
    <path d="M13 49H10.5C10.5 48 10.5 44.9 10.5 40.5C10.5 36.1 14.1667 35 16 35C17 35 19.9 35 23.5 35C27.1 35 28 37.3333 28 38.5C30.8 38.5 31.5 40.8333 31.5 42V50C30.936 50 30.4384 49.9264 30 49.7964M13 49H22.5C24 49 27 48.3 27 45.5C27 46.765 27.6401 49.0969 30 49.7964M13 49V55.5C13 57.8333 14.7 62.5 21.5 62.5C28.3 62.5 30 57.8333 30 55.5V49.7964" stroke="#5F458A" stroke-width="2"/>
    <path d="M61 51H88M61 51H58.5V55.5M61 51V34.5M88 51V43M88 51H90V55.5H58.5M88 38.5V30H61V34.5M58.5 55.5C54.8994 55.5 49.4468 55.5 45 55.5M61 34.5C60.6 34.9 58.8333 35 58 35C53.6 35 51.1667 31.6667 50.5 30L41.9871 33.2742C39.2838 34.3139 37.5 36.9108 37.5 39.8072C37.5 41.9689 37.5 44.3056 37.5 46.5M45 55.5C40.8017 55.5 37.5 55.5 37.5 55.5C37.5 55.0722 37.5 51.0987 37.5 46.5M45 55.5V46.5M45 41V46.5M45 46.5H37.5M13.5 30V13.5H42" stroke="#5F458A" stroke-width="2"/>
    <path d="M24.5 85H51.5M24.5 85H22V89.5M24.5 85V68.5M51.5 85V77M51.5 85H53.5V89.5H22M51.5 72.5V64H24.5V68.5M22 89.5C18.3994 89.5 12.9468 89.5 8.5 89.5M24.5 68.5C24.1 68.9 22.3333 69 21.5 69C17.1 69 14.6667 65.6667 14 64L5.48715 67.2742C2.7838 68.3139 1 70.9108 1 73.8072C1 75.9689 1 78.3056 1 80.5M8.5 89.5C4.3017 89.5 1 89.5 1 89.5C1 89.0722 1 85.0987 1 80.5M8.5 89.5V80.5M8.5 75V80.5M8.5 80.5H1M77.5 60.5V77H56.5" stroke="#5F458A" stroke-width="2"/>
    <path d="M72.5 84H84.5V73" stroke="#5F458A" stroke-width="2"/>
    <path d="M30 21H21V30" stroke="#5F458A" stroke-width="2"/>
</svg>
