<svg width="122" height="108" viewBox="0 0 122 108" fill="none" xmlns="http://www.w3.org/2000/svg">
    <rect x="22" y="8" width="100" height="100" rx="15" fill="#F3DBFE"/>
    <path d="M52.6425 42.0132V49.7955" stroke="#5F458A" stroke-width="2"/>
    <path d="M95.8911 57V64.7824" stroke="#5F458A" stroke-width="2"/>
    <path d="M80.8911 78V85.7824" stroke="#5F458A" stroke-width="2"/>
    <path d="M9.89111 22V29.7824" stroke="#5F458A" stroke-width="2"/>
    <path d="M21.8911 7V14.7824" stroke="#5F458A" stroke-width="2"/>
    <path d="M56.5337 45.9043L48.7513 45.9043" stroke="#5F458A" stroke-width="2"/>
    <path d="M99.7823 60.8911L92 60.8911" stroke="#5F458A" stroke-width="2"/>
    <path d="M84.7823 81.8911L77 81.8911" stroke="#5F458A" stroke-width="2"/>
    <path d="M13.7822 25.8911L5.99986 25.8911" stroke="#5F458A" stroke-width="2"/>
    <path d="M25.7822 10.8911L17.9999 10.8911" stroke="#5F458A" stroke-width="2"/>
    <circle cx="52.2534" cy="47.0719" r="34.4097" stroke="#5F458A" stroke-width="2"/>
    <path d="M25.828 47.4609C25.5501 46.0795 25.4042 44.6495 25.4042 43.1849C25.4042 34.8239 30.1602 27.5896 37.0777 24.1138" stroke="#5F458A" stroke-width="2"/>
    <path d="M74.5972 20.5741C84.8241 19.0438 93.432 19.9801 95.6043 24.4489C99.6888 32.8514 83.2982 49.2402 58.9947 61.0542C34.6913 72.8683 11.6783 75.6339 7.59377 67.2314C5.41098 62.741 9.82285 55.3643 17.4178 48.2294" stroke="#5F458A" stroke-width="2"/>
    <path d="M60.4249 25.0803L63.1284 28.9462L63.2298 29.0911L63.3748 29.1925L67.2406 31.896L63.3748 34.5996L63.2298 34.701L63.1284 34.8459L60.4249 38.7117L57.7213 34.8459L57.6199 34.701L57.475 34.5996L53.6092 31.896L57.475 29.1925L57.6199 29.0911L57.7213 28.9462L60.4249 25.0803Z" stroke="#5F458A" stroke-width="2"/>
    <path d="M21.124 78.0629L23.3336 81.3889L23.4314 81.5361L23.5737 81.6408L26.8304 84.0382L23.5737 86.4356L23.4314 86.5404L23.3336 86.6876L21.124 90.0135L18.9143 86.6876L18.8165 86.5404L18.6742 86.4356L15.4175 84.0382L18.6742 81.6408L18.8165 81.5361L18.9143 81.3889L21.124 78.0629Z" stroke="#5F458A" stroke-width="2"/>
    <path d="M89.6087 2.57369L91.8184 5.89962L91.9161 6.0468L92.0584 6.15156L95.3151 8.54896L92.0584 10.9464L91.9161 11.0511L91.8184 11.1983L89.6087 14.5242L87.399 11.1983L87.3013 11.0511L87.1589 10.9464L83.9023 8.54896L87.1589 6.15156L87.3013 6.0468L87.399 5.89962L89.6087 2.57369Z" stroke="#5F458A" stroke-width="2"/>
</svg>
