<svg width="176" height="176" viewBox="40 25 124 124" fill="none" xmlns="http://www.w3.org/2000/svg">
    <rect x="62" y="44" width="100" height="100" rx="15" fill="#F3DBFE"/>
    <path d="M133.34 76.1804L123.021 65.1804M133.34 76.1804L123.021 84.5722M133.34 76.1804L133.34 102.18L133.34 128.18M42.3403 76.1804L52.6599 65.1804M42.3403 76.1804L42.3403 128.18M42.3403 76.1804L52.6599 84.5722M42.3403 128.18H133.34M42.3403 128.18L74.3133 102.18M133.34 128.18L101.367 102.18M52.6599 84.5722V37.1804H123.021L123.021 84.5722M52.6599 84.5722L74.3133 102.18M123.021 84.5722L101.367 102.18M74.3133 102.18L87.8403 113.18L101.367 102.18" stroke="#5F458A" stroke-width="2"/>
    <path d="M87.6355 63.9567C77.3984 53.8003 65.2418 72.2088 87.6355 83C111.309 72.2091 98.4804 53.8 87.6355 63.9567Z" stroke="#5F458A" stroke-width="2"/>
</svg>
